<?xml version="1.0" standalone="no"?>
<!DOCTYPE svg PUBLIC "-//W3C//DTD SVG 20010904//EN"
 "http://www.w3.org/TR/2001/REC-SVG-20010904/DTD/svg10.dtd">
<svg version="1.0" xmlns="http://www.w3.org/2000/svg"
 width="321.000000pt" height="321.000000pt" viewBox="0 0 321.000000 321.000000"
 preserveAspectRatio="xMidYMid meet">
<metadata>
Created by potrace 1.14, written by Peter Selinger 2001-2017
</metadata>
<g transform="translate(0.000000,321.000000) scale(0.100000,-0.100000)"
fill="#000000" stroke="none">
<path d="M1501 2738 c-8 -18 -19 -36 -25 -40 -7 -5 -4 -8 7 -8 9 0 17 -7 17
-15 0 -12 -13 -15 -57 -15 -65 0 -62 -15 6 -24 51 -7 46 -3 55 -38 6 -27 5
-28 -29 -28 -24 0 -35 5 -35 15 0 8 -4 15 -10 15 -5 0 -10 -7 -10 -15 0 -8 -7
-15 -15 -15 -8 0 -15 -4 -15 -10 0 -5 20 -11 45 -11 25 -1 50 -3 55 -4 6 -1
12 -3 15 -4 2 0 0 -12 -5 -25 -9 -24 -24 -154 -22 -188 0 -13 -9 -16 -51 -16
-60 -1 -72 5 -56 24 9 11 9 14 -1 14 -6 0 -14 -8 -17 -18 -4 -16 -11 -17 -54
-12 -28 4 -52 3 -55 -2 -7 -11 -7 -10 27 -25 25 -11 164 -30 182 -25 4 1 7 -2
7 -8 0 -5 -12 -13 -27 -16 -83 -21 -106 -71 -77 -171 5 -18 2 -23 -11 -23 -10
0 -15 5 -12 13 9 23 -8 40 -32 32 -16 -5 -20 -12 -16 -26 4 -13 2 -19 -9 -19
-9 0 -16 -8 -16 -17 0 -10 -5 -25 -10 -33 -9 -13 -11 -13 -21 0 -8 11 -12 12
-16 3 -2 -7 -9 -13 -14 -13 -6 0 -7 6 -3 13 5 8 2 8 -9 -2 -10 -8 -17 -9 -17
-3 0 6 -3 17 -6 26 -4 11 3 16 33 19 21 2 -2 4 -52 4 -49 0 -76 -2 -59 -4 27
-4 30 -7 26 -28 -4 -21 -7 -23 -24 -14 -13 7 -23 7 -32 0 -7 -6 -16 -8 -19 -4
-4 3 -7 -3 -7 -14 0 -19 9 -21 108 -29 99 -8 107 -11 110 -31 3 -18 -3 -22
-36 -28 -35 -5 -38 -9 -34 -30 2 -13 7 -24 11 -23 19 2 31 -3 26 -12 -3 -5 -1
-18 4 -29 7 -13 8 -36 1 -71 -11 -56 -1 -90 25 -90 8 0 15 -5 15 -11 0 -6 -6
-9 -12 -6 -21 7 -48 -12 -48 -33 0 -13 -7 -20 -19 -20 -22 0 -36 -56 -16 -64
17 -6 3 -82 -14 -78 -7 1 -19 -2 -26 -8 -7 -6 -39 -10 -70 -9 -51 2 -58 5 -71
31 -10 19 -22 28 -39 28 -14 0 -25 -5 -25 -12 0 -6 -7 -3 -16 8 -15 18 -15 17
-10 -18 3 -28 1 -38 -9 -38 -11 0 -11 -9 1 -52 7 -29 14 -54 14 -55 0 -2 -22
-3 -49 -3 -42 0 -51 -3 -57 -22 -4 -14 -1 -25 10 -33 19 -15 21 -31 3 -38 -7
-3 -30 -48 -51 -101 -38 -96 -39 -97 -70 -94 -29 3 -31 5 -28 41 2 22 -1 37
-7 37 -6 0 -11 -13 -11 -29 0 -39 -9 -61 -26 -61 -11 0 -14 16 -14 67 0 83 -8
79 -11 -5 -2 -45 -6 -62 -16 -62 -8 0 -11 5 -8 10 3 6 1 10 -4 10 -6 0 -11 -5
-11 -11 0 -7 -11 -9 -30 -5 -40 8 -87 -3 -94 -21 -4 -9 22 -67 59 -133 84
-151 133 -258 156 -340 24 -83 24 -110 2 -110 -16 -1 -16 -2 1 -12 14 -8 52
-8 145 2 69 6 200 10 291 8 91 -1 266 3 390 10 343 20 652 33 893 39 l219 5
33 36 c18 20 57 81 88 137 48 88 54 105 50 142 -4 34 -9 43 -24 43 -15 0 -19
-8 -21 -37 -1 -35 -2 -34 -8 12 l-7 50 -3 -50 c-2 -29 -5 -40 -7 -26 -4 19 -7
21 -14 10 -6 -10 -9 -10 -9 -1 0 19 -30 14 -32 -5 0 -10 -4 2 -8 27 l-7 45 -1
-43 c-1 -26 -6 -41 -12 -37 -6 4 -8 11 -5 16 4 5 0 9 -7 9 -9 0 -9 3 2 10 12
8 13 11 1 19 -11 7 -11 9 0 14 10 4 9 6 -3 6 -14 1 -18 -8 -19 -41 l-2 -43 -7
35 -7 35 -3 -35 c-1 -19 -4 -27 -7 -18 -5 19 -25 25 -21 7 2 -6 -3 -14 -9 -16
-8 -3 -13 3 -14 14 0 16 -1 16 -9 -2 -7 -17 -9 -17 -9 -2 -1 9 -5 17 -11 17
-5 0 -10 -8 -11 -17 0 -15 -2 -15 -8 2 -5 11 -6 26 -4 33 3 6 1 12 -5 12 -15
0 -44 119 -42 172 l1 48 -53 1 c-29 0 -73 4 -98 7 -44 7 -45 8 -53 55 -6 29
-14 47 -23 47 -8 0 -14 10 -14 25 0 18 5 25 20 25 12 0 20 7 20 17 0 14 3 14
22 -3 20 -18 21 -18 15 -1 -6 15 -2 18 15 15 14 -2 24 -12 28 -28 l6 -25 6 28
c6 30 -1 37 -46 46 -22 5 -32 13 -34 29 -3 19 -10 22 -47 22 l-44 0 -5 43
c-11 84 -13 91 -15 47 -3 -82 -8 -91 -55 -88 l-41 3 -46 120 c-57 147 -57 189
-3 199 45 9 54 26 10 19 -19 -3 -64 -2 -99 1 -73 8 -87 24 -87 95 0 44 11 50
95 52 101 2 105 16 6 24 -76 6 -90 10 -75 19 26 15 25 50 -1 54 -29 6 -38 17
-31 39 6 17 19 21 103 26 60 4 100 11 104 19 11 18 5 20 -42 20 -22 -1 -39 2
-35 5 3 3 1 14 -4 24 -9 16 -5 18 32 22 24 2 -2 4 -57 4 -55 0 -81 -2 -58 -4
39 -4 42 -6 30 -24 -14 -23 -62 -25 -75 -3 -5 9 -7 50 -4 92 3 62 2 75 -8 65
-7 -7 -15 -45 -18 -85 -5 -78 -11 -88 -54 -88 -23 0 -28 4 -28 25 0 15 -6 25
-15 25 -9 0 -14 8 -12 23 1 16 -3 22 -18 22 -15 0 -19 -6 -17 -23 1 -18 -2
-23 -15 -20 -15 3 -19 18 -24 78 -4 41 -8 88 -10 104 -5 36 11 42 143 49 51 3
94 6 96 6 9 3 -1 32 -10 30 -7 -1 -39 -1 -70 0 -55 1 -58 2 -58 26 0 14 -5 25
-11 25 -7 0 -9 -10 -6 -25 4 -25 3 -26 -42 -23 l-46 3 -3 75 c-1 41 -5 82 -9
90 -19 44 5 70 64 70 30 0 43 4 43 14 0 9 -8 12 -26 8 -18 -3 -25 -1 -20 6 3
6 2 13 -4 17 -5 3 -10 -1 -10 -9 0 -11 -9 -16 -30 -16 -27 0 -30 3 -30 30 0
24 4 30 23 31 12 1 27 2 32 4 6 1 22 3 38 3 51 3 27 17 -30 17 -61 0 -82 18
-41 34 14 6 17 10 7 10 -9 1 -19 15 -25 37 l-9 36 -14 -34z m225 -845 c-3 -21
-6 -48 -6 -60 0 -18 -6 -23 -25 -23 -24 0 -25 3 -25 60 l0 60 31 0 c31 0 31
-1 25 -37z m-6 -136 c0 -8 -7 -29 -16 -46 -14 -27 -19 -31 -29 -19 -7 7 -15
25 -19 40 -5 20 -2 28 11 31 35 9 53 7 53 -6z m133 -281 c44 -96 44 -98 0 -94
-37 3 -38 4 -41 45 -2 30 -10 47 -25 58 -16 11 -18 15 -5 15 8 0 21 7 28 15 7
8 14 15 15 15 2 0 15 -24 28 -54z"/>
<path d="M596 1365 c-3 -9 -18 -15 -35 -15 -16 0 -33 -4 -36 -10 -3 -5 -17
-10 -30 -10 -22 0 -24 -4 -22 -40 2 -35 5 -40 27 -41 83 -6 93 -13 85 -63 -5
-30 -3 -37 4 -26 6 8 11 24 12 35 l0 20 10 -20 c7 -16 8 -13 3 10 -3 17 -5 63
-5 103 2 71 -2 86 -13 57z"/>
<path d="M621 1154 c0 -11 3 -14 6 -6 3 7 2 16 -1 19 -3 4 -6 -2 -5 -13z"/>
<path d="M572 1110 c0 -14 2 -19 5 -12 2 6 2 18 0 25 -3 6 -5 1 -5 -13z"/>
<path d="M631 1114 c0 -11 3 -14 6 -6 3 7 2 16 -1 19 -3 4 -6 -2 -5 -13z"/>
<path d="M561 1054 c0 -11 3 -14 6 -6 3 7 2 16 -1 19 -3 4 -6 -2 -5 -13z"/>
<path d="M2492 810 c0 -14 2 -19 5 -12 2 6 2 18 0 25 -3 6 -5 1 -5 -13z"/>
<path d="M2643 823 c9 -2 23 -2 30 0 6 3 -1 5 -18 5 -16 0 -22 -2 -12 -5z"/>
<path d="M2718 823 c6 -2 18 -2 25 0 6 3 1 5 -13 5 -14 0 -19 -2 -12 -5z"/>
<path d="M2460 800 c0 -5 5 -10 10 -10 6 0 10 5 10 10 0 6 -4 10 -10 10 -5 0
-10 -4 -10 -10z"/>
<path d="M2520 800 c0 -5 5 -10 10 -10 6 0 10 5 10 10 0 6 -4 10 -10 10 -5 0
-10 -4 -10 -10z"/>
<path d="M2630 800 c0 -5 7 -10 15 -10 8 0 15 5 15 10 0 6 -7 10 -15 10 -8 0
-15 -4 -15 -10z"/>
</g>
</svg>
